<?xml version="1.0" encoding="UTF-8"?>
<!DOCTYPE svg PUBLIC "-//W3C//DTD SVG 1.1//EN" "http://www.w3.org/Graphics/SVG/1.1/DTD/svg11.dtd">
<!-- Creator: CorelDRAW 2019 (64-Bit) -->
<svg xmlns="http://www.w3.org/2000/svg" xml:space="preserve" width="380px" height="160px" version="1.1" style="shape-rendering:geometricPrecision; text-rendering:geometricPrecision; image-rendering:optimizeQuality; fill-rule:evenodd; clip-rule:evenodd"
viewBox="0 0 380 160"
 xmlns:xlink="http://www.w3.org/1999/xlink"
 xmlns:xodm="http://www.corel.com/coreldraw/odm/2003">
 <defs>
  <style type="text/css">
   <![CDATA[
    .fil2 {fill:black}
    .fil1 {fill:#0E9B26}
    .fil0 {fill:#3864F2}
   ]]>
  </style>
 </defs>
 <g id="Capa_x0020_1">
  <metadata id="CorelCorpID_0Corel-Layer"/>
  <g id="_1005586432">
   <path class="fil0" d="M62.42 47.08c4.3,-1.6 0.08,-5.62 6.35,-5.28 3.43,5.23 -1.69,10.07 -6.15,10.66 -5.47,0.74 -10.63,-3.02 -8.97,-7.36 3.38,-1.85 1.53,-0.73 2.61,-0.48 3.13,0.71 2.04,3.99 6.16,2.46zm-24.05 58.38c0.61,7.94 17.58,4.99 14.4,-3.93 -2.34,-6.59 -6.67,3.2 -6.67,3.21 -4.73,-0.24 -1.61,-1.31 -4.85,-2.03 -1.84,-0.41 -3.03,0.78 -2.88,2.75zm18.74 -7.97c-2.11,11.57 18.38,8.87 13.38,-3.08 -6.4,-0.62 -2.48,1.51 -6.08,5.08 -5.85,-0.54 -0.84,-3.06 -7.3,-2zm31.75 -5.01c-6.38,-2.39 -11.37,-1.03 -9.12,6.52 2.96,0.92 6.28,0.79 9.12,-0.33 0.89,-2.49 0.89,-3.68 0,-6.19zm0.96 -72.5c-0.52,6.92 6.57,17.31 9.32,20.85 6.58,-0.04 17.31,-8.54 19.28,-12.25 2.33,-4.42 1.12,-9.83 -2.18,-11.7 -4.15,-2.35 -7.95,0.56 -10.76,1.92 -1.79,-3.5 -3.09,-6.84 -7.9,-6.78 -4.41,0.06 -7.45,3.72 -7.76,7.96zm22.29 69.3c-7.17,-26.17 -30.86,-32.84 -32.29,-35.03 -1.55,-2.37 2.33,-16.62 -4.21,-28.08 -14.17,-24.86 -54.66,-18.08 -58.28,12.14 -1.56,13.03 3.37,18.75 8.32,25.81 3.52,5.03 -0.76,7.24 -3.23,10.76 -7.93,11.28 -10.34,26.93 -6.88,40.48 3.69,14.42 12.7,18.25 17.33,13.82 2.02,-2.35 1.25,-2.96 0.84,-6.82l-1.18 -21.1c0.04,-13.89 3.71,-34.21 12.7,-16.6 2.59,5.07 1.4,7.49 7.07,7.05 1.6,-5.85 -0.86,-11.89 3.37,-16.51 7.17,0.91 7.67,9.97 11.55,15.27 7.85,0.46 17.65,-3.64 24.53,-1.73 2.28,7.55 0.28,22.67 -3.52,29.4 -5.48,9.71 -15.85,8.73 -20.45,13.61 -6.69,7.11 -1.68,20.25 9.58,19.17 8.03,-0.77 16.79,-7.98 20.91,-12.2 13.26,-13.56 19.42,-29.06 13.84,-49.44zm-73.6 -36.74c4.49,-1.92 -0.12,-5.69 6.91,-5.56 4.99,13.85 -19.8,13.82 -15.45,3.12 5.94,-1.86 3.61,4.55 8.54,2.44z"/>
   <path class="fil1" d="M175.31 58.57c0,2.06 -0.68,3.65 -2.03,4.75 -1.36,1.11 -3.34,1.66 -5.95,1.66l-7.02 0 0 -12.82 7.02 0c2.61,0 4.59,0.55 5.95,1.66 1.35,1.11 2.03,2.69 2.03,4.75zm170 -2.49c-1.94,1.08 -3.45,2.58 -4.55,4.5 -1.09,1.92 -1.63,4.08 -1.63,6.48 0,2.43 0.56,4.61 1.68,6.53 1.12,1.92 2.72,3.42 4.77,4.5 2.07,1.07 4.45,1.61 7.16,1.61 2.12,0 4.03,-0.34 5.72,-1.01 1.69,-0.68 3.09,-1.68 4.19,-3l-3.09 -3.56c-1.75,1.79 -3.98,2.68 -6.69,2.68 -2.12,0 -3.89,-0.53 -5.32,-1.59 -1.43,-1.06 -2.32,-2.5 -2.66,-4.31l19.33 0c0.07,-0.74 0.1,-1.31 0.1,-1.71 0,-2.52 -0.54,-4.75 -1.6,-6.67 -1.06,-1.92 -2.53,-3.41 -4.43,-4.47 -1.89,-1.06 -4.03,-1.59 -6.43,-1.59 -2.43,0 -4.61,0.53 -6.55,1.61zm-0.46 9c0.27,-1.82 1.05,-3.27 2.33,-4.36 1.27,-1.1 2.83,-1.64 4.68,-1.64 1.88,0 3.44,0.55 4.71,1.66 1.26,1.11 2.01,2.55 2.26,4.34l-13.98 0zm-33.68 -10.34l10.56 24.64 5.96 0 10.56 -24.64 -5.54 0 -7.88 18.27 -7.66 -18.27 -6 0zm-25.4 5.82c-1.12,1.9 -1.68,4.07 -1.68,6.5 0,2.43 0.56,4.61 1.68,6.53 1.13,1.92 2.69,3.42 4.69,4.5 2,1.07 4.24,1.61 6.73,1.61 2.52,0 4.78,-0.54 6.78,-1.61 2,-1.08 3.56,-2.58 4.69,-4.5 1.12,-1.92 1.68,-4.1 1.68,-6.53 0,-2.43 -0.56,-4.6 -1.68,-6.5 -1.13,-1.91 -2.69,-3.4 -4.69,-4.48 -2,-1.08 -4.26,-1.61 -6.78,-1.61 -2.49,0 -4.73,0.53 -6.73,1.61 -2,1.08 -3.56,2.57 -4.69,4.48zm4.13 6.5c0,-2.31 0.69,-4.17 2.06,-5.58 1.36,-1.42 3.11,-2.12 5.23,-2.12 2.12,0 3.88,0.7 5.26,2.12 1.39,1.41 2.08,3.27 2.08,5.58 0,2.31 -0.69,4.17 -2.08,5.58 -1.38,1.42 -3.14,2.12 -5.26,2.12 -2.12,0 -3.87,-0.7 -5.23,-2.12 -1.37,-1.41 -2.06,-3.27 -2.06,-5.58zm-30.63 -19.98l0 32.3 22.88 0 0 -5.08 -16.88 0 0 -27.22 -6 0zm-23.46 9.48c-1.95,1.4 -2.93,3.27 -2.93,5.61 0,1.78 0.47,3.18 1.41,4.18 0.94,0.99 2.04,1.69 3.32,2.09 1.28,0.4 2.93,0.76 4.96,1.06 1.94,0.31 3.34,0.64 4.22,0.97 0.88,0.34 1.31,0.94 1.31,1.8 0,1.82 -1.72,2.72 -5.16,2.72 -1.51,0 -3.04,-0.22 -4.59,-0.66 -1.56,-0.45 -2.89,-1.04 -3.99,-1.78l-2.22 4.38c1.14,0.8 2.66,1.46 4.57,1.99 1.91,0.52 3.86,0.78 5.86,0.78 3.44,0 6.17,-0.69 8.16,-2.08 2,-1.38 3,-3.22 3,-5.53 0,-1.76 -0.45,-3.11 -1.36,-4.06 -0.91,-0.95 -1.99,-1.63 -3.25,-2.03 -1.26,-0.4 -2.88,-0.75 -4.84,-1.06 -1.97,-0.34 -3.43,-0.7 -4.36,-1.09 -0.94,-0.38 -1.41,-1.03 -1.41,-1.96 0,-0.83 0.44,-1.5 1.31,-2 0.88,-0.51 2.17,-0.76 3.86,-0.76 2.61,0 4.96,0.61 7.05,1.84l2.22 -4.38c-1.08,-0.65 -2.46,-1.16 -4.15,-1.55 -1.69,-0.38 -3.39,-0.57 -5.08,-0.57 -3.32,0 -5.96,0.69 -7.91,2.09zm-19.63 2.98l0 11.86c0,2.7 0.74,4.76 2.21,6.18 1.48,1.41 3.57,2.12 6.28,2.12 1.08,0 2.1,-0.14 3.07,-0.41 0.97,-0.28 1.79,-0.7 2.47,-1.25l-1.62 -4.11c-0.86,0.68 -1.94,1.02 -3.23,1.02 -1.11,0 -1.95,-0.32 -2.54,-0.95 -0.58,-0.63 -0.87,-1.54 -0.87,-2.74l0 -11.72 6.59 0 0 -4.61 -6.59 0 0 -5.63 -5.77 0 0 5.63 -4.06 0 0 4.61 4.06 0zm-18.78 -0.46c1.88,0 3.45,0.55 4.71,1.66 1.26,1.11 2.01,2.55 2.26,4.34l-13.98 0c0.28,-1.82 1.06,-3.27 2.33,-4.36 1.28,-1.1 2.84,-1.64 4.68,-1.64zm-6.55 -3c-1.93,1.08 -3.45,2.58 -4.54,4.5 -1.09,1.92 -1.64,4.08 -1.64,6.48 0,2.43 0.56,4.61 1.69,6.53 1.12,1.92 2.71,3.42 4.77,4.5 2.06,1.07 4.44,1.61 7.15,1.61 2.12,0 4.03,-0.34 5.72,-1.01 1.69,-0.68 3.09,-1.68 4.2,-3l-3.09 -3.56c-1.75,1.79 -3.98,2.68 -6.69,2.68 -2.12,0 -3.9,-0.53 -5.33,-1.59 -1.43,-1.06 -2.31,-2.5 -2.65,-4.31l19.33 0c0.06,-0.74 0.09,-1.31 0.09,-1.71 0,-2.52 -0.53,-4.75 -1.59,-6.67 -1.06,-1.92 -2.54,-3.41 -4.43,-4.47 -1.89,-1.06 -4.04,-1.59 -6.44,-1.59 -2.43,0 -4.61,0.53 -6.55,1.61zm-36.53 -9l0 32.3 5.99 0 0 -9.32 7.29 0c2.8,0 5.24,-0.46 7.31,-1.39 2.08,-0.92 3.67,-2.25 4.78,-3.99 1.11,-1.73 1.66,-3.77 1.66,-6.11 0,-2.37 -0.55,-4.41 -1.66,-6.13 -1.11,-1.73 -2.7,-3.05 -4.78,-3.97 -2.07,-0.92 -4.51,-1.39 -7.31,-1.39l-13.28 0z"/>
   <path class="fil2" d="M169.43 114.68l12.23 -27.62 -2.96 0 -10.65 23.99 -10.58 -23.99 -3.15 0 12.23 27.62 2.88 0zm192.08 -11.72l-6.58 0c-2.79,0 -4.83,0.54 -6.1,1.62 -1.28,1.08 -1.92,2.5 -1.92,4.26 0,1.82 0.69,3.28 2.06,4.38 1.37,1.11 3.21,1.66 5.52,1.66 1.68,0 3.14,-0.3 4.36,-0.91 1.22,-0.6 2.15,-1.44 2.78,-2.52l0 3.23 2.69 0 0 -12.86c0,-2.66 -0.73,-4.66 -2.17,-6.02 -1.45,-1.35 -3.53,-2.03 -6.24,-2.03 -1.63,0 -3.18,0.24 -4.65,0.73 -1.48,0.49 -2.74,1.18 -3.79,2.07l1.26 2.09c0.87,-0.76 1.91,-1.36 3.12,-1.79 1.21,-0.44 2.47,-0.65 3.78,-0.65 1.93,0 3.39,0.46 4.39,1.4 0.99,0.93 1.49,2.29 1.49,4.08l0 1.26zm-6.51 2.09l6.51 0 0 3.4c-0.55,1.37 -1.39,2.41 -2.52,3.14 -1.13,0.72 -2.49,1.08 -4.06,1.08 -1.66,0 -2.95,-0.35 -3.87,-1.04 -0.92,-0.7 -1.38,-1.66 -1.38,-2.87 0,-2.47 1.77,-3.71 5.32,-3.71zm-17 -16.25c0.39,0.39 0.88,0.59 1.46,0.59 0.58,0 1.06,-0.2 1.46,-0.59 0.39,-0.4 0.59,-0.88 0.59,-1.46 0,-0.53 -0.2,-0.98 -0.59,-1.36 -0.4,-0.38 -0.88,-0.58 -1.46,-0.58 -0.58,0 -1.07,0.2 -1.46,0.6 -0.4,0.39 -0.6,0.85 -0.6,1.38 0,0.55 0.2,1.02 0.6,1.42zm0.04 5.13l0 20.75 2.8 0 0 -20.75 -2.8 0zm-15.51 0l0 20.75 2.8 0 0 -10.57c0,-2.42 0.62,-4.3 1.86,-5.64 1.23,-1.35 2.94,-2.02 5.13,-2.02l0.67 0.04 0 -2.72c-1.92,0 -3.54,0.35 -4.84,1.07 -1.3,0.71 -2.28,1.76 -2.94,3.15l0 -4.06 -2.68 0zm-17.01 9.03c-2.79,0 -4.82,0.54 -6.09,1.62 -1.28,1.08 -1.92,2.5 -1.92,4.26 0,1.82 0.69,3.28 2.05,4.38 1.37,1.11 3.21,1.66 5.53,1.66 1.68,0 3.14,-0.3 4.36,-0.91 1.22,-0.6 2.15,-1.44 2.78,-2.52l0 3.23 2.68 0 0 -12.86c0,-2.66 -0.72,-4.66 -2.17,-6.02 -1.44,-1.35 -3.52,-2.03 -6.23,-2.03 -1.63,0 -3.18,0.24 -4.66,0.73 -1.47,0.49 -2.73,1.18 -3.78,2.07l1.26 2.09c0.87,-0.76 1.9,-1.36 3.11,-1.79 1.21,-0.44 2.48,-0.65 3.79,-0.65 1.92,0 3.38,0.46 4.38,1.4 1,0.93 1.5,2.29 1.5,4.08l0 1.26 -6.59 0zm6.59 2.09l0 3.4c-0.55,1.37 -1.39,2.41 -2.52,3.14 -1.13,0.72 -2.49,1.08 -4.07,1.08 -1.66,0 -2.94,-0.35 -3.86,-1.04 -0.93,-0.7 -1.38,-1.66 -1.38,-2.87 0,-2.47 1.77,-3.71 5.32,-3.71l6.51 0zm-39.58 -11.12l0 20.75 2.81 0 0 -10.89c0,-2.34 0.65,-4.17 1.95,-5.5 1.3,-1.33 3.07,-1.99 5.31,-1.99 2,0 3.54,0.56 4.61,1.69 1.08,1.13 1.62,2.78 1.62,4.94l0 11.75 2.8 0 0 -12.03c0,-2.89 -0.77,-5.1 -2.3,-6.61 -1.54,-1.51 -3.62,-2.27 -6.22,-2.27 -1.79,0 -3.36,0.35 -4.72,1.05 -1.35,0.69 -2.41,1.67 -3.17,2.94l0 -3.83 -2.69 0zm-10.65 -5.13c0.4,0.39 0.88,0.59 1.46,0.59 0.58,0 1.07,-0.2 1.46,-0.59 0.4,-0.4 0.59,-0.88 0.59,-1.46 0,-0.53 -0.19,-0.98 -0.59,-1.36 -0.39,-0.38 -0.88,-0.58 -1.46,-0.58 -0.58,0 -1.06,0.2 -1.46,0.6 -0.39,0.39 -0.59,0.85 -0.59,1.38 0,0.55 0.2,1.02 0.59,1.42zm0.04 5.13l0 20.75 2.8 0 0 -20.75 -2.8 0zm-15.51 0l0 20.75 2.8 0 0 -10.57c0,-2.42 0.62,-4.3 1.86,-5.64 1.24,-1.35 2.95,-2.02 5.13,-2.02l0.67 0.04 0 -2.72c-1.92,0 -3.53,0.35 -4.83,1.07 -1.31,0.71 -2.29,1.76 -2.94,3.15l0 -4.06 -2.69 0zm-24.6 4.93c-0.88,1.6 -1.32,3.42 -1.32,5.45 0,2.02 0.46,3.84 1.38,5.44 0.92,1.61 2.2,2.86 3.85,3.77 1.64,0.91 3.53,1.36 5.66,1.36 1.66,0 3.18,-0.29 4.56,-0.87 1.38,-0.58 2.53,-1.42 3.45,-2.52l-1.58 -1.82c-0.79,0.9 -1.72,1.57 -2.8,2.03 -1.08,0.46 -2.26,0.69 -3.55,0.69 -2.29,0 -4.18,-0.66 -5.68,-1.99 -1.5,-1.33 -2.33,-3.07 -2.49,-5.23l17.36 0 0.04 -0.86c0,-2.06 -0.43,-3.88 -1.3,-5.47 -0.87,-1.59 -2.07,-2.83 -3.59,-3.73 -1.53,-0.89 -3.25,-1.34 -5.17,-1.34 -1.92,0 -3.65,0.45 -5.19,1.34 -1.54,0.9 -2.75,2.15 -3.63,3.75zm1.48 4.22c0.18,-2.05 0.95,-3.71 2.31,-4.99 1.35,-1.28 3.03,-1.91 5.03,-1.91 2.03,0 3.72,0.63 5.07,1.91 1.36,1.28 2.12,2.94 2.31,4.99l-14.72 0zm-15.51 -6.78l0 12.54c0,1.92 0.53,3.41 1.58,4.46 1.05,1.05 2.55,1.58 4.5,1.58 0.84,0 1.65,-0.12 2.43,-0.37 0.77,-0.25 1.42,-0.62 1.95,-1.09l-0.99 -2.01c-0.39,0.34 -0.86,0.6 -1.4,0.79 -0.54,0.18 -1.1,0.27 -1.68,0.27 -1.15,0 -2.04,-0.32 -2.66,-0.96 -0.62,-0.65 -0.93,-1.59 -0.93,-2.82l0 -12.39 6.32 0 0 -2.37 -6.32 0 0 -4.54 -2.8 0 0 4.54 -3.71 0 0 2.37 3.71 0zm-25.07 2.56c-0.88,1.6 -1.32,3.42 -1.32,5.45 0,2.02 0.46,3.84 1.38,5.44 0.92,1.61 2.2,2.86 3.84,3.77 1.65,0.91 3.54,1.36 5.67,1.36 1.65,0 3.17,-0.29 4.55,-0.87 1.38,-0.58 2.53,-1.42 3.46,-2.52l-1.58 -1.82c-0.79,0.9 -1.73,1.57 -2.8,2.03 -1.08,0.46 -2.27,0.69 -3.55,0.69 -2.29,0 -4.19,-0.66 -5.69,-1.99 -1.5,-1.33 -2.33,-3.07 -2.48,-5.23l17.36 0 0.04 -0.86c0,-2.06 -0.44,-3.88 -1.3,-5.47 -0.87,-1.59 -2.07,-2.83 -3.6,-3.73 -1.52,-0.89 -3.24,-1.34 -5.16,-1.34 -1.92,0 -3.65,0.45 -5.19,1.34 -1.54,0.9 -2.75,2.15 -3.63,3.75zm1.48 4.22c0.18,-2.05 0.95,-3.71 2.3,-4.99 1.36,-1.28 3.04,-1.91 5.04,-1.91 2.02,0 3.71,0.63 5.07,1.91 1.35,1.28 2.12,2.94 2.3,4.99l-14.71 0z"/>
  </g>
 </g>
</svg>
